<?xml version="1.0" standalone="no"?>
<!DOCTYPE svg PUBLIC "-//W3C//DTD SVG 20010904//EN"
 "http://www.w3.org/TR/2001/REC-SVG-20010904/DTD/svg10.dtd">
<svg version="1.0" xmlns="http://www.w3.org/2000/svg"
 width="540.000000pt" height="540.000000pt" viewBox="0 0 540.000000 540.000000"
 preserveAspectRatio="xMidYMid meet">
<metadata>
Created by potrace 1.14, written by Peter Selinger 2001-2017
</metadata>
<g transform="translate(0.000000,540.000000) scale(0.100000,-0.100000)"
fill="#000000" stroke="none">
<path d="M2454 5279 c-393 -30 -838 -187 -1185 -417 -524 -349 -887 -848
-1065 -1464 -49 -171 -73 -317 -86 -520 -31 -479 53 -906 262 -1333 198 -403
505 -751 889 -1007 281 -186 632 -328 965 -388 266 -49 666 -49 932 0 333 60
684 202 965 388 524 349 887 848 1065 1464 49 171 73 317 86 520 31 479 -53
906 -262 1333 -198 403 -505 751 -889 1007 -355 235 -787 386 -1201 418 -143
11 -329 11 -476 -1z m530 -134 c1242 -145 2176 -1195 2176 -2445 0 -1361
-1099 -2460 -2460 -2460 -1361 0 -2460 1099 -2460 2460 0 1158 799 2152 1933
2404 245 55 557 71 811 41z"/>
<path d="M2550 5094 c-349 -30 -618 -102 -905 -244 -483 -237 -854 -606 -1090
-1085 -86 -174 -134 -300 -174 -458 -146 -567 -87 -1144 169 -1662 241 -489
608 -856 1095 -1095 343 -169 667 -244 1055 -244 388 0 712 75 1055 244 487
239 856 608 1095 1095 169 344 243 665 243 1055 0 213 -7 291 -49 499 -69 346
-246 716 -481 1009 -376 468 -931 781 -1538 867 -101 15 -392 26 -475 19z
m242 -336 l-3 -48 40 0 41 0 0 -65 0 -65 -30 0 c-29 0 -30 -2 -30 -44 l0 -43
71 -6 c41 -4 83 -14 102 -25 29 -17 32 -23 31 -64 -2 -58 -20 -90 -86 -159
l-54 -56 26 -15 c14 -8 31 -27 39 -41 13 -25 13 -30 -6 -55 -11 -15 -32 -33
-47 -40 -45 -23 -16 -42 63 -42 70 0 91 -10 91 -43 0 -29 -38 -84 -70 -104
-23 -13 -27 -20 -19 -34 13 -25 11 -60 -6 -92 -13 -25 -12 -38 9 -130 22 -92
45 -196 122 -547 14 -63 36 -162 50 -220 27 -119 67 -298 92 -412 13 -63 14
-86 5 -120 -11 -40 -10 -44 16 -74 30 -34 89 -167 98 -219 11 -67 -116 -258
-199 -301 -161 -83 -740 -79 -909 7 -44 22 -102 86 -155 171 -31 50 -39 72
-38 108 1 54 52 179 95 232 28 35 29 39 18 80 -11 40 -7 67 49 313 33 149 63
286 67 305 4 19 45 203 92 409 65 285 82 375 73 381 -17 10 -27 110 -11 110 6
0 -8 17 -30 38 -45 40 -73 91 -63 116 8 20 -4 17 84 22 41 3 79 9 83 13 12 12
0 31 -18 31 -19 0 -55 48 -55 73 0 11 15 34 34 52 l35 32 -36 34 c-55 54 -93
126 -93 181 0 45 2 49 40 68 27 14 59 20 104 20 36 0 67 4 70 8 2 4 2 27 -1
50 -5 38 -8 42 -35 42 l-29 0 3 63 c3 62 3 62 36 65 31 3 32 5 32 48 l0 45
108 -3 107 -3 -3 -47z m-1092 -670 l-1 -93 -62 -54 c-369 -323 -573 -830 -529
-1314 22 -235 72 -410 174 -608 120 -235 308 -444 533 -596 88 -59 274 -150
376 -183 173 -57 294 -75 504 -75 210 0 331 18 504 75 102 33 288 124 376 183
360 243 601 607 686 1038 30 148 32 414 6 556 -70 376 -244 686 -525 935 l-53
47 3 90 3 91 85 -68 c339 -275 568 -665 635 -1082 19 -123 20 -433 1 -551 -79
-486 -362 -919 -776 -1188 -181 -118 -381 -200 -609 -248 -114 -25 -146 -27
-336 -27 -190 0 -222 2 -336 27 -228 48 -428 130 -609 248 -414 269 -697 702
-776 1188 -19 118 -18 428 1 551 55 340 219 668 460 919 71 74 249 231 262
231 2 0 3 -42 3 -92z"/>
</g>
</svg>
